<?xml version="1.0" encoding="UTF-8"?>
<svg xmlns="http://www.w3.org/2000/svg" xmlns:xlink="http://www.w3.org/1999/xlink" width="100px" height="100px" viewBox="0 0 100 100" version="1.1">
<g id="surface1">
<path style=" stroke:none;fill-rule:nonzero;fill:rgb(19.215687%,47.058824%,77.64706%);fill-opacity:1;" d="M 15 0 L 85 0 C 93.285156 0 100 6.714844 100 15 L 100 85 C 100 93.285156 93.285156 100 85 100 L 15 100 C 6.714844 100 0 93.285156 0 85 L 0 15 C 0 6.714844 6.714844 0 15 0 Z M 15 0 "/>
<path style=" stroke:none;fill-rule:nonzero;fill:rgb(100%,100%,100%);fill-opacity:1;" d="M 45.507812 55.46875 L 58.007812 55.46875 L 58.007812 47.460938 L 23.046875 47.460938 L 23.046875 55.46875 L 35.546875 55.46875 L 35.546875 91.210938 L 45.507812 91.210938 Z M 61.914062 89.257812 C 63.496094 90.078125 65.429688 90.683594 67.578125 91.09375 C 69.726562 91.503906 72.070312 91.699219 74.414062 91.699219 C 76.757812 91.699219 78.90625 91.484375 81.054688 91.035156 C 83.203125 90.585938 84.960938 89.84375 86.523438 88.886719 C 88.105469 87.851562 89.453125 86.542969 90.234375 84.785156 C 91.015625 83.027344 91.621094 81.074219 91.621094 78.535156 C 91.621094 76.757812 91.347656 75.214844 90.820312 73.847656 C 90.292969 72.480469 89.53125 71.308594 88.476562 70.332031 C 87.480469 69.296875 86.328125 68.378906 84.960938 67.597656 C 83.59375 66.816406 82.03125 65.996094 80.273438 65.253906 C 78.984375 64.726562 77.929688 64.21875 76.757812 63.710938 C 75.742188 63.203125 74.863281 62.695312 74.21875 62.1875 C 73.496094 61.660156 72.949219 61.113281 72.558594 60.546875 C 72.167969 59.960938 71.972656 59.316406 71.972656 58.59375 C 71.972656 57.929688 72.148438 57.324219 72.5 56.777344 C 72.851562 56.230469 73.339844 55.78125 73.964844 55.390625 C 74.589844 55 75.371094 54.707031 76.308594 54.492188 C 77.226562 54.277344 78.242188 54.179688 79.433594 54.179688 C 80.253906 54.179688 81.113281 54.238281 81.972656 54.363281 C 82.871094 54.484375 83.789062 54.675781 84.707031 54.929688 C 85.625 55.183594 86.523438 55.496094 87.441406 55.886719 C 88.300781 56.277344 89.101562 56.726562 89.785156 57.234375 L 89.785156 48.054688 C 88.300781 47.488281 86.660156 47.058594 84.902344 46.785156 C 83.144531 46.511719 81.191406 46.375 78.847656 46.375 C 76.503906 46.375 74.355469 46.628906 72.207031 47.117188 C 70.058594 47.605469 68.300781 48.386719 66.738281 49.460938 C 65.15625 50.515625 64.003906 51.804688 63.027344 53.5625 C 62.109375 55.203125 61.660156 57.078125 61.660156 59.421875 C 61.660156 62.351562 62.5 64.890625 64.199219 66.84375 C 65.878906 68.992188 68.496094 70.554688 71.816406 72.117188 C 73.164062 72.664062 74.355469 73.210938 75.527344 73.738281 C 76.699219 74.265625 77.675781 74.8125 78.457031 75.378906 C 79.296875 75.945312 79.960938 76.570312 80.410156 77.234375 C 80.898438 77.898438 81.152344 78.679688 81.152344 79.578125 C 81.152344 80.203125 81 80.789062 80.703125 81.335938 C 80.40625 81.882812 79.941406 82.351562 79.316406 82.742188 C 78.691406 83.132812 77.929688 83.445312 76.972656 83.679688 C 76.054688 83.894531 75.019531 84.011719 73.652344 84.011719 C 71.503906 84.011719 69.355469 83.640625 67.402344 82.898438 C 65.253906 82.15625 63.300781 81.042969 61.914062 79.882812 Z M 61.914062 89.257812 "/>
</g>
</svg>
